<svg xmlns="http://www.w3.org/2000/svg" width="1200" height="700" viewBox="0 0 1200 700">
    <defs>
      <linearGradient id="g" x1="0" x2="1" y1="0" y2="1">
        <stop offset="0%" stop-color="#0a0d14"/>
        <stop offset="100%" stop-color="#060709"/>
      </linearGradient>
      <radialGradient id="r1" cx="15%" cy="18%" r="50%">
        <stop offset="0%" stop-color="#38d1bc" stop-opacity="0.18"/>
        <stop offset="100%" stop-color="#38d1bc" stop-opacity="0"/>
      </radialGradient>
      <radialGradient id="r2" cx="90%" cy="12%" r="45%">
        <stop offset="0%" stop-color="#e8c16c" stop-opacity="0.12"/>
        <stop offset="100%" stop-color="#e8c16c" stop-opacity="0"/>
      </radialGradient>
    </defs>
    <rect width="1200" height="700" fill="url(#g)"/>
    <rect width="1200" height="700" fill="url(#r1)"/>
    <rect width="1200" height="700" fill="url(#r2)"/>
    <path d="M 0 130 C 180 60, 360 200, 540 130 S 900 60, 1200 130" stroke="#38d1bc" stroke-width="2.0" fill="none" opacity="0.28"/><path d="M 0 200 C 180 130, 360 270, 540 200 S 900 130, 1200 200" stroke="#e8c16c" stroke-width="2.8" fill="none" opacity="0.33"/><path d="M 0 270 C 180 200, 360 340, 540 270 S 900 200, 1200 270" stroke="#38d1bc" stroke-width="3.6" fill="none" opacity="0.38"/><path d="M 0 340 C 180 270, 360 410, 540 340 S 900 270, 1200 340" stroke="#e8c16c" stroke-width="4.4" fill="none" opacity="0.43000000000000005"/><path d="M 0 410 C 180 340, 360 480, 540 410 S 900 340, 1200 410" stroke="#38d1bc" stroke-width="5.2" fill="none" opacity="0.48000000000000004"/>
    <text x="75" y="585" fill="#fffaf0" font-family="Inter,Arial,sans-serif" font-size="56" font-weight="650" text-anchor="start">Quantum Processing</text>
    <rect x="76" y="610" width="220" height="3" fill="#e8c16c" opacity="0.75"/>
    </svg>