<svg xmlns="http://www.w3.org/2000/svg" width="1200" height="700" viewBox="0 0 1200 700">
    <defs>
      <linearGradient id="g" x1="0" x2="1" y1="0" y2="1">
        <stop offset="0%" stop-color="#0a0d14"/>
        <stop offset="100%" stop-color="#060709"/>
      </linearGradient>
      <radialGradient id="r1" cx="15%" cy="18%" r="50%">
        <stop offset="0%" stop-color="#38d1bc" stop-opacity="0.18"/>
        <stop offset="100%" stop-color="#38d1bc" stop-opacity="0"/>
      </radialGradient>
      <radialGradient id="r2" cx="90%" cy="12%" r="45%">
        <stop offset="0%" stop-color="#e8c16c" stop-opacity="0.12"/>
        <stop offset="100%" stop-color="#e8c16c" stop-opacity="0"/>
      </radialGradient>
    </defs>
    <rect width="1200" height="700" fill="url(#g)"/>
    <rect width="1200" height="700" fill="url(#r1)"/>
    <rect width="1200" height="700" fill="url(#r2)"/>
    <line x1="180" y1="160" x2="360" y2="240" stroke="#38d1bc" stroke-width="2" opacity="0.35"/><line x1="360" y1="240" x2="540" y2="140" stroke="#38d1bc" stroke-width="2" opacity="0.35"/><line x1="540" y1="140" x2="730" y2="260" stroke="#38d1bc" stroke-width="2" opacity="0.35"/><line x1="730" y1="260" x2="940" y2="180" stroke="#38d1bc" stroke-width="2" opacity="0.35"/><line x1="940" y1="180" x2="1020" y2="360" stroke="#38d1bc" stroke-width="2" opacity="0.35"/><line x1="1020" y1="360" x2="780" y2="460" stroke="#38d1bc" stroke-width="2" opacity="0.35"/><line x1="780" y1="460" x2="500" y2="420" stroke="#38d1bc" stroke-width="2" opacity="0.35"/><line x1="500" y1="420" x2="250" y2="360" stroke="#38d1bc" stroke-width="2" opacity="0.35"/><circle cx="180" cy="160" r="14" fill="#38d1bc" opacity="0.22"/><circle cx="180" cy="160" r="5" fill="#e8c16c"/><circle cx="360" cy="240" r="14" fill="#38d1bc" opacity="0.22"/><circle cx="360" cy="240" r="5" fill="#e8c16c"/><circle cx="540" cy="140" r="14" fill="#38d1bc" opacity="0.22"/><circle cx="540" cy="140" r="5" fill="#e8c16c"/><circle cx="730" cy="260" r="14" fill="#38d1bc" opacity="0.22"/><circle cx="730" cy="260" r="5" fill="#e8c16c"/><circle cx="940" cy="180" r="14" fill="#38d1bc" opacity="0.22"/><circle cx="940" cy="180" r="5" fill="#e8c16c"/><circle cx="1020" cy="360" r="14" fill="#38d1bc" opacity="0.22"/><circle cx="1020" cy="360" r="5" fill="#e8c16c"/><circle cx="780" cy="460" r="14" fill="#38d1bc" opacity="0.22"/><circle cx="780" cy="460" r="5" fill="#e8c16c"/><circle cx="500" cy="420" r="14" fill="#38d1bc" opacity="0.22"/><circle cx="500" cy="420" r="5" fill="#e8c16c"/><circle cx="250" cy="360" r="14" fill="#38d1bc" opacity="0.22"/><circle cx="250" cy="360" r="5" fill="#e8c16c"/>
    <text x="75" y="585" fill="#fffaf0" font-family="Inter,Arial,sans-serif" font-size="56" font-weight="650" text-anchor="start">Quantum Communications and Networking</text>
    <rect x="76" y="610" width="220" height="3" fill="#e8c16c" opacity="0.75"/>
    </svg>